<svg xmlns="http://www.w3.org/2000/svg" viewBox="-67.95501708984375 26.515032854590345 710.9100341796875 412.7049969763423"> <svg xmlns="http://www.w3.org/2000/svg" xmlns:xlink="http://www.w3.org/1999/xlink" version="1.1" id="Livello_1" x="176.0003662109375" y="96.51503285459034" viewBox="566 453.8999938964844 942 904.199951171875" xml:space="preserve" height="214.05088511415966" width="222.99926757812503" preserveAspectRatio="xMinYMin" enable-background="new 0 0 2000 2000" style="overflow: visible;"><polygon class="st0" points="1292.5,1333.6 1508,1333.6 1078.6,453.9 864.2,453.9 " style="fill: #FFFFFF; fill-opacity: 1;"></polygon><linearGradient id="SVGID_1_" gradientUnits="userSpaceOnUse" x1="937.9464" y1="36.5369" x2="524.6138" y2="2092.8665" style=""><stop offset="0" style="stop-color: #17ADFF;"></stop><stop offset="1" style="stop-color: #51FF7D;"></stop></linearGradient><circle class="st1" cx="699" cy="1225.1" r="133" style="fill: #FFFFFF; fill-opacity: 1;"></circle></svg> <svg y="342.780029296875" viewBox="-0.33000001311302185 9.350000381469727 570.9100341796875 26.440000534057617" x="2.04498291015625" height="26.440000534057617" width="570.9100341796875" style="overflow: visible;"><g fill="#FFFFFF" fill-opacity="1" style=""><path d="M5.73 35.36L-0.33 35.36L11.07 9.79L16.91 9.79L28.34 35.36L22.13 35.36L12.78 12.78L15.12 12.78L5.73 35.36ZM21.70 29.88L5.37 29.88L6.94 25.39L20.09 25.39L21.70 29.88ZM53.91 35.36L47.99 35.36L47.99 14.61L39.81 14.61L39.81 9.79L62.09 9.79L62.09 14.61L53.91 14.61L53.91 35.36ZM83.67 24.69L83.67 20.09L95.98 20.09L95.98 24.69L83.67 24.69ZM84.11 14.54L84.11 30.61L98.02 30.61L98.02 35.36L78.23 35.36L78.23 9.79L97.55 9.79L97.55 14.54L84.11 14.54ZM134.43 35.36L115.69 35.36L115.69 9.79L121.61 9.79L121.61 30.54L134.43 30.54L134.43 35.36ZM156.63 35.36L150.72 35.36L150.72 9.79L156.63 9.79L156.63 35.36ZM181.10 24.69L181.10 20.09L193.41 20.09L193.41 24.69L181.10 24.69ZM181.54 14.54L181.54 30.61L195.45 30.61L195.45 35.36L175.66 35.36L175.66 9.79L194.98 9.79L194.98 14.54L181.54 14.54ZM219.04 35.36L213.13 35.36L213.13 9.79L224.19 9.79Q227.63 9.79 230.11 10.90Q232.59 12.02 233.95 14.10Q235.30 16.18 235.30 19.07L235.30 19.07Q235.30 21.92 233.95 23.98Q232.59 26.04 230.11 27.14Q227.63 28.23 224.19 28.23L224.19 28.23L216.41 28.23L219.04 25.64L219.04 35.36ZM235.77 35.36L229.38 35.36L222.99 26.08L229.31 26.08L235.77 35.36ZM219.04 11.80L219.04 26.30L216.41 23.52L223.86 23.52Q226.60 23.52 227.96 22.34Q229.31 21.15 229.31 19.07L229.31 19.07Q229.31 16.95 227.96 15.78Q226.60 14.61 223.86 14.61L223.86 14.61L216.41 14.61L219.04 11.80ZM282.15 35.36L276.23 35.36L276.23 9.79L287.30 9.79Q290.73 9.79 293.21 10.90Q295.70 12.02 297.05 14.10Q298.40 16.18 298.40 19.07L298.40 19.07Q298.40 21.92 297.05 24.00Q295.70 26.08 293.21 27.19Q290.73 28.31 287.30 28.31L287.30 28.31L279.52 28.31L282.15 25.64L282.15 35.36ZM282.15 11.80L282.15 26.30L279.52 23.49L286.97 23.49Q289.71 23.49 291.06 22.32Q292.41 21.15 292.41 19.07L292.41 19.07Q292.41 16.95 291.06 15.78Q289.71 14.61 286.97 14.61L286.97 14.61L279.52 14.61L282.15 11.80ZM321.00 24.69L321.00 20.09L333.31 20.09L333.31 24.69L321.00 24.69ZM321.44 14.54L321.44 30.61L335.36 30.61L335.36 35.36L315.56 35.36L315.56 9.79L334.88 9.79L334.88 14.54L321.44 14.54ZM371.77 35.36L353.03 35.36L353.03 9.79L358.95 9.79L358.95 30.54L371.77 30.54L371.77 35.36ZM393.97 35.36L388.05 35.36L388.05 9.79L393.97 9.79L393.97 35.36ZM421.39 35.79L421.39 35.79Q418.33 35.79 415.51 34.97Q412.70 34.15 410.98 32.84L410.98 32.84L412.99 28.38Q414.64 29.55 416.88 30.30Q419.13 31.05 421.43 31.05L421.43 31.05Q423.18 31.05 424.26 30.70Q425.34 30.35 425.85 29.73Q426.36 29.11 426.36 28.31L426.36 28.31Q426.36 27.28 425.56 26.68Q424.75 26.08 423.44 25.70Q422.12 25.31 420.54 24.97Q418.95 24.62 417.36 24.11Q415.77 23.60 414.45 22.79Q413.14 21.99 412.32 20.67Q411.50 19.36 411.50 17.31L411.50 17.31Q411.50 15.12 412.68 13.31Q413.87 11.51 416.26 10.43Q418.65 9.35 422.27 9.35L422.27 9.35Q424.68 9.35 427.02 9.92Q429.36 10.48 431.15 11.62L431.15 11.62L429.32 16.11Q427.53 15.08 425.74 14.59Q423.95 14.10 422.23 14.10L422.23 14.10Q420.52 14.10 419.42 14.50Q418.33 14.90 417.85 15.54Q417.38 16.18 417.38 17.02L417.38 17.02Q417.38 18.01 418.18 18.61Q418.98 19.21 420.30 19.58Q421.61 19.94 423.20 20.31Q424.79 20.67 426.38 21.15Q427.97 21.62 429.28 22.43Q430.60 23.23 431.42 24.54Q432.24 25.86 432.24 27.87L432.24 27.87Q432.24 30.02 431.04 31.81Q429.83 33.60 427.44 34.70Q425.05 35.79 421.39 35.79ZM457.66 35.79L457.66 35.79Q454.59 35.79 451.78 34.97Q448.97 34.15 447.25 32.84L447.25 32.84L449.26 28.38Q450.90 29.55 453.15 30.30Q455.39 31.05 457.69 31.05L457.69 31.05Q459.45 31.05 460.53 30.70Q461.60 30.35 462.11 29.73Q462.63 29.11 462.63 28.31L462.63 28.31Q462.63 27.28 461.82 26.68Q461.02 26.08 459.70 25.70Q458.39 25.31 456.80 24.97Q455.21 24.62 453.62 24.11Q452.03 23.60 450.72 22.79Q449.40 21.99 448.58 20.67Q447.76 19.36 447.76 17.31L447.76 17.31Q447.76 15.12 448.95 13.31Q450.13 11.51 452.53 10.43Q454.92 9.35 458.53 9.35L458.53 9.35Q460.95 9.35 463.28 9.92Q465.62 10.48 467.41 11.62L467.41 11.62L465.58 16.11Q463.79 15.08 462.00 14.59Q460.21 14.10 458.50 14.10L458.50 14.10Q456.78 14.10 455.69 14.50Q454.59 14.90 454.12 15.54Q453.64 16.18 453.64 17.02L453.64 17.02Q453.64 18.01 454.44 18.61Q455.25 19.21 456.56 19.58Q457.88 19.94 459.47 20.31Q461.05 20.67 462.64 21.15Q464.23 21.62 465.55 22.43Q466.86 23.23 467.68 24.54Q468.51 25.86 468.51 27.87L468.51 27.87Q468.51 30.02 467.30 31.81Q466.10 33.60 463.70 34.70Q461.31 35.79 457.66 35.79ZM491.44 35.36L485.52 35.36L485.52 9.79L491.44 9.79L491.44 35.36ZM515.90 24.69L515.90 20.09L528.21 20.09L528.21 24.69L515.90 24.69ZM516.34 14.54L516.34 30.61L530.26 30.61L530.26 35.36L510.46 35.36L510.46 9.79L529.78 9.79L529.78 14.54L516.34 14.54ZM553.85 35.36L547.93 35.36L547.93 9.79L559.00 9.79Q562.43 9.79 564.92 10.90Q567.40 12.02 568.75 14.10Q570.10 16.18 570.10 19.07L570.10 19.07Q570.10 21.92 568.75 23.98Q567.40 26.04 564.92 27.14Q562.43 28.23 559.00 28.23L559.00 28.23L551.22 28.23L553.85 25.64L553.85 35.36ZM570.58 35.36L564.18 35.36L557.79 26.08L564.11 26.08L570.58 35.36ZM553.85 11.80L553.85 26.30L551.22 23.52L558.67 23.52Q561.41 23.52 562.76 22.34Q564.11 21.15 564.11 19.07L564.11 19.07Q564.11 16.95 562.76 15.78Q561.41 14.61 558.67 14.61L558.67 14.61L551.22 14.61L553.85 11.80Z" transform="translate(0, 0)"></path></g></svg></svg>